<?xml version="1.0" encoding="utf-8"?>
<!-- Generator: Adobe Illustrator 16.0.0, SVG Export Plug-In . SVG Version: 6.00 Build 0)  -->
<!DOCTYPE svg PUBLIC "-//W3C//DTD SVG 1.1//EN" "http://www.w3.org/Graphics/SVG/1.1/DTD/svg11.dtd">
<svg version="1.1" id="Layer_1" xmlns="http://www.w3.org/2000/svg" xmlns:xlink="http://www.w3.org/1999/xlink" x="0px" y="0px"
	 width="258.134px" height="257.678px" viewBox="0 0 258.134 257.678" enable-background="new 0 0 258.134 257.678"
	 xml:space="preserve">
<g>
	<polygon fill="#EE7F21" points="27.883,55.944 9.091,10.388 8.998,10.16 0,10.16 0,63.254 6.212,63.254 6.212,17.648 
		24.805,63.024 24.9,63.254 30.553,63.254 49.155,17.656 49.155,63.254 55.373,63.254 55.373,10.16 46.449,10.16 	"/>
	<polygon fill="#EE7F21" points="101.062,32.634 67.404,32.634 67.404,10.16 61.185,10.16 61.185,63.254 67.404,63.254 
		67.404,37.58 101.062,37.58 101.062,63.254 107.277,63.254 107.277,10.16 101.062,10.16 	"/>
	<path fill="#EE7F21" d="M138.238,8.78c-7.9,0-14.628,2.565-19.46,7.424c-5.014,5.037-7.746,12.345-7.705,20.576
		c0,16.922,10.756,27.855,27.403,27.855c16.701,0,27.488-10.933,27.488-27.855C165.965,19.768,155.08,8.78,138.238,8.78
		 M159.748,36.78c0,11.075-5.564,22.907-21.186,22.907c-15.687,0-21.271-11.832-21.271-22.907c0-10.636,5.527-23.054,21.105-23.054
		C151.568,13.726,159.748,22.555,159.748,36.78"/>
	<rect x="185.615" y="92.625" fill="#8F9193" width="72.52" height="72.186"/>
	<rect x="185.615" y="185.495" fill="#8F9193" width="72.52" height="72.183"/>
	<path fill="#8F9193" d="M72.645,122.506V92.625H0.125v72.186H34.67C46.36,149.852,59.049,135.717,72.645,122.506"/>
	<path fill="#8F9193" d="M72.645,164.811v-18.234c-4.629,5.926-9.068,12.01-13.309,18.234H72.645z"/>
	<path fill="#8F9193" d="M0.125,185.491v31.094c6.012-10.666,12.481-21.039,19.391-31.094H0.125z"/>
	<path fill="#8F9193" d="M72.645,257.678v-72.183h-26.36c-13.173,22.57-23.87,46.753-31.738,72.183H72.645z"/>
	<path fill="#8F9193" d="M165.434,72.189V63.63c-4.484,2.755-8.896,5.611-13.242,8.559H165.434z"/>
	<path fill="#8F9193" d="M165.434,164.811v-64.296c-15.762,19.164-27.783,40.876-35.123,64.296H165.434z"/>
	<path fill="#8F9193" d="M126.417,257.678h39.016v-72.183h-40.279c-2.016,10.738-3.072,21.769-3.072,33.015
		C122.082,231.914,123.581,245.01,126.417,257.678"/>
	<path fill="#8F9193" d="M103.516,185.491H92.915v72.186h5.229c-0.659-6.782-1.009-13.657-1.009-20.613
		C97.135,219.276,99.356,202.004,103.516,185.491"/>
	<path fill="#8F9193" d="M92.914,92.625v11.425c4.593-3.91,9.271-7.714,14.031-11.425H92.914z"/>
	<path fill="#8F9193" d="M92.914,122.85v41.961h16.96c9.875-27.043,25.136-51.525,44.499-72.186h-29.398
		C113.662,102.021,102.954,112.118,92.914,122.85"/>
	<path fill="#008957" d="M258.135,72.189V34.343c-23.945,9.346-45.719,22.21-64.49,37.846H258.135z"/>
	<path fill="#008957" d="M258.135,0h-72.52v44.356c23.092-10.827,47.34-19.591,72.52-26.046V0z"/>
	<path fill="#008957" d="M185.615,65.181c21.504-15.482,46.018-27.09,72.52-33.809v-7.448c-25.432,6.724-49.719,16.25-72.52,28.224
		V65.181z"/>
</g>
</svg>
