<?xml version="1.0" encoding="utf-8"?>
<!-- Generator: Adobe Illustrator 16.0.0, SVG Export Plug-In . SVG Version: 6.00 Build 0)  -->
<!DOCTYPE svg PUBLIC "-//W3C//DTD SVG 1.1//EN" "http://www.w3.org/Graphics/SVG/1.1/DTD/svg11.dtd">
<svg version="1.1" id="Layer_1" xmlns="http://www.w3.org/2000/svg" xmlns:xlink="http://www.w3.org/1999/xlink" x="0px" y="0px"
	 width="258.134px" height="257.678px" viewBox="0 0 258.134 257.678" enable-background="new 0 0 258.134 257.678"
	 xml:space="preserve">
<g>
	<polygon fill="#EE7F21" points="27.884,55.944 9.092,10.388 8.998,10.16 0,10.16 0,63.254 6.213,63.254 6.213,17.648 
		24.806,63.024 24.901,63.254 30.553,63.254 49.155,17.656 49.155,63.254 55.373,63.254 55.373,10.16 46.45,10.16 	"/>
	<polygon fill="#EE7F21" points="101.063,32.634 67.404,32.634 67.404,10.16 61.185,10.16 61.185,63.254 67.404,63.254 
		67.404,37.58 101.063,37.58 101.063,63.254 107.278,63.254 107.278,10.16 101.063,10.16 	"/>
	<path fill="#EE7F21" d="M138.237,8.78c-7.898,0-14.626,2.565-19.458,7.424c-5.016,5.037-7.747,12.345-7.705,20.576
		c0,16.922,10.756,27.855,27.404,27.855c16.7,0,27.486-10.933,27.486-27.855C165.965,19.768,155.081,8.78,138.237,8.78
		 M159.748,36.78c0,11.075-5.564,22.907-21.187,22.907c-15.685,0-21.27-11.832-21.27-22.907c0-10.636,5.527-23.054,21.104-23.054
		C151.569,13.726,159.748,22.555,159.748,36.78"/>
	<rect x="185.615" y="92.625" fill="#8F9193" width="72.519" height="72.186"/>
	<rect x="185.615" y="185.495" fill="#8F9193" width="72.519" height="72.183"/>
	<path fill="#8F9193" d="M72.645,122.506V92.625H0.126v72.186H34.67C46.36,149.852,59.048,135.717,72.645,122.506"/>
	<path fill="#8F9193" d="M72.645,164.811v-18.234c-4.629,5.926-9.068,12.01-13.309,18.234H72.645z"/>
	<path fill="#8F9193" d="M0.126,185.491v31.094c6.012-10.666,12.481-21.039,19.39-31.094H0.126z"/>
	<path fill="#8F9193" d="M72.645,257.678v-72.183h-26.36c-13.173,22.57-23.87,46.753-31.739,72.183H72.645z"/>
	<path fill="#8F9193" d="M165.435,72.189V63.63c-4.484,2.755-8.897,5.611-13.242,8.559H165.435z"/>
	<path fill="#8F9193" d="M165.435,164.811v-64.296c-15.764,19.164-27.785,40.876-35.125,64.296H165.435z"/>
	<path fill="#8F9193" d="M126.418,257.678h39.017v-72.183h-40.28c-2.017,10.738-3.072,21.769-3.072,33.015
		C122.083,231.914,123.58,245.01,126.418,257.678"/>
	<path fill="#8F9193" d="M103.517,185.491H92.915v72.186h5.229c-0.659-6.782-1.009-13.657-1.009-20.613
		C97.135,219.276,99.356,202.004,103.517,185.491"/>
	<path fill="#8F9193" d="M92.913,92.625v11.425c4.594-3.91,9.271-7.714,14.031-11.425H92.913z"/>
	<path fill="#8F9193" d="M92.913,122.85v41.961h16.961c9.875-27.043,25.135-51.525,44.498-72.186h-29.396
		C113.663,102.021,102.953,112.118,92.913,122.85"/>
	<path fill="#006EB6" d="M258.134,72.189V34.343c-23.942,9.346-45.717,22.21-64.488,37.846H258.134z"/>
	<path fill="#006EB6" d="M258.134,0h-72.519v44.356c23.091-10.827,47.341-19.591,72.519-26.046V0z"/>
	<path fill="#006EB6" d="M185.615,65.181c21.504-15.482,46.019-27.09,72.519-33.809v-7.448c-25.43,6.724-49.719,16.25-72.519,28.224
		V65.181z"/>
</g>
</svg>
